<svg xmlns="http://www.w3.org/2000/svg" width="53.319" height="65.72" viewBox="0 0 53.319 65.72">
  <g id="Group_6367" data-name="Group 6367" transform="translate(1 1)">
    <g id="Group_6372" data-name="Group 6372" transform="translate(0 0)">
      <path id="Path_11361" data-name="Path 11361" d="M27.7,18.876,29.365,24h5.389a.933.933,0,0,1,.549,1.688l-4.36,3.167,1.666,5.125a.933.933,0,0,1-1.436,1.043l-4.36-3.167-4.359,3.167a.933.933,0,0,1-1.436-1.043l1.665-5.125-4.359-3.167A.933.933,0,0,1,18.871,24h5.388l1.666-5.125A.933.933,0,0,1,27.7,18.876Z" transform="translate(-1.153 -1.156)" fill="none" stroke="#3fe3fc" stroke-linecap="round" stroke-linejoin="round" stroke-width="2"/>
      <ellipse id="Ellipse_13" data-name="Ellipse 13" cx="15.322" cy="15.322" rx="15.322" ry="15.322" transform="translate(10.337 11.501)" fill="none" stroke="#3fe3fc" stroke-linecap="round" stroke-linejoin="round" stroke-width="2"/>
      <path id="Path_11362" data-name="Path 11362" d="M49.9,14.413c2.143,3.712-2.98,9.407-2.984,13.406,0,4.125,5.048,9.838,2.989,13.412-2,3.465-9.4,1.975-13.111,4.118s-6.123,9.3-10.123,9.3c-4.125,0-6.546-7.235-10.122-9.294-3.464-2-10.958-.407-13.1-4.119s2.98-9.407,2.984-13.407c0-4.125-5.048-9.837-2.989-13.412,2-3.464,9.4-1.975,13.111-4.117S22.68,1,26.679,1C30.8,1,33.227,8.235,36.8,10.294,40.265,12.29,47.759,10.7,49.9,14.413Z" transform="translate(-1.017 -1)" fill="none" stroke="#3fe3fc" stroke-linecap="round" stroke-linejoin="round" stroke-width="2"/>
      <path id="Path_11363" data-name="Path 11363" d="M34.377,53.536l6.7,11.6,3.5-7.277,8.051.609-6.7-11.6" transform="translate(-1.301 -1.415)" fill="none" stroke="#3fe3fc" stroke-linecap="round" stroke-linejoin="round" stroke-width="2"/>
      <path id="Path_11364" data-name="Path 11364" d="M19.243,53.536l-6.7,11.6-3.5-7.277L1,58.468l6.7-11.6" transform="translate(-1 -1.415)" fill="none" stroke="#3fe3fc" stroke-linecap="round" stroke-linejoin="round" stroke-width="2"/>
    </g>
  </g>
</svg>
