<svg xmlns="http://www.w3.org/2000/svg" width="62.09" height="65.72" viewBox="0 0 62.09 65.72">
  <g id="Group_6371" data-name="Group 6371" transform="translate(0.984 1)">
    <g id="Group_6373" data-name="Group 6373" transform="translate(0 0)">
      <path id="Path_11369" data-name="Path 11369" d="M16.332,15.567a27.621,27.621,0,1,0,17.2-6.007q-1.082,0-2.145.081" transform="translate(-1.044 -1.077)" fill="none" stroke="#3fe3fc" stroke-linecap="round" stroke-linejoin="round" stroke-width="2"/>
      <path id="Path_11370" data-name="Path 11370" d="M45.107,16.806l-2.75,2.271h-5.62l-6.815,6.816v7.532l3.826,3.819h5.739l5.384,5.384v6.819l4.362,4.362" transform="translate(-1.261 -1.143)" fill="none" stroke="#3fe3fc" stroke-linecap="round" stroke-linejoin="round" stroke-width="2"/>
      <path id="Path_11371" data-name="Path 11371" d="M26.3,59.234v-5.2l3.377-3.377V45.6l-4.2-4.2H19.128l-6.165,6.165" transform="translate(-1.108 -1.366)" fill="none" stroke="#3fe3fc" stroke-linecap="round" stroke-linejoin="round" stroke-width="2"/>
      <path id="Path_11372" data-name="Path 11372" d="M10.65,30.532a43.57,43.57,0,0,1,4.663-2.63c2.892-1.405,3.946-1.523,5.26-2.272,3.817-2.175,5.021-6.947,5.381-8.369,2.129-8.435-4.3-15.609-4.9-16.261a19.92,19.92,0,0,1-4.3,4.9,30.273,30.273,0,0,1-5.141,3.109c-4.554,2.523-6.833,3.783-8.13,5.261C.1,18.12,1.073,23.878,1.324,25.511A18.092,18.092,0,0,0,5.95,34.95" transform="translate(-1 -1)" fill="none" stroke="#3fe3fc" stroke-linecap="round" stroke-linejoin="round" stroke-width="2"/>
    </g>
  </g>
</svg>
