<svg xmlns="http://www.w3.org/2000/svg" width="65.721" height="65.719" viewBox="0 0 65.721 65.719">
  <g id="Group_6835" data-name="Group 6835" transform="translate(1 1)">
    <g id="Group_6375" data-name="Group 6375" transform="translate(0 0)">
      <path id="Path_11365" data-name="Path 11365" d="M51.818,32.979a18.84,18.84,0,1,1-18.84-18.84A18.84,18.84,0,0,1,51.818,32.979Z" transform="translate(-1.119 -1.119)" fill="none" stroke="#3fe3fc" stroke-linecap="round" stroke-linejoin="round" stroke-width="2"/>
      <path id="Path_11366" data-name="Path 11366" d="M38.215,26.524A5.111,5.111,0,1,1,33.1,21.413,5.112,5.112,0,0,1,38.215,26.524Z" transform="translate(-1.244 -1.185)" fill="none" stroke="#3fe3fc" stroke-linecap="round" stroke-linejoin="round" stroke-width="2"/>
      <path id="Path_11367" data-name="Path 11367" d="M61.774,16.715l-8.474.77a25.718,25.718,0,0,0-5.066-5.066L49,3.946A32.887,32.887,0,0,0,41.889,1L36.443,7.535a25.567,25.567,0,0,0-3.582-.279,25.567,25.567,0,0,0-3.582.279L23.832,1a32.887,32.887,0,0,0-7.115,2.946l.77,8.474a25.718,25.718,0,0,0-5.066,5.066l-8.474-.77A32.889,32.889,0,0,0,1,23.83l6.535,5.446a25.716,25.716,0,0,0-.279,3.582,25.73,25.73,0,0,0,.279,3.583L1,41.889A32.931,32.931,0,0,0,3.947,49l8.474-.771A25.7,25.7,0,0,0,17.487,53.3l-.77,8.473a32.89,32.89,0,0,0,7.115,2.947l5.446-6.535a25.716,25.716,0,0,0,3.582.279,25.716,25.716,0,0,0,3.582-.279l5.446,6.535A32.89,32.89,0,0,0,49,61.772l-.77-8.473A25.7,25.7,0,0,0,53.3,48.233L61.774,49a32.91,32.91,0,0,0,2.947-7.115l-6.535-5.446a25.73,25.73,0,0,0,.279-3.583,25.715,25.715,0,0,0-.279-3.582l6.535-5.446A32.889,32.889,0,0,0,61.774,16.715Z" transform="translate(-1 -1)" fill="none" stroke="#3fe3fc" stroke-linecap="round" stroke-linejoin="round" stroke-width="2"/>
      <line id="Line_550" data-name="Line 550" y1="3.704" transform="translate(26.749 41.405)" fill="none" stroke="#3fe3fc" stroke-linecap="round" stroke-linejoin="round" stroke-width="2"/>
      <line id="Line_551" data-name="Line 551" y1="3.704" transform="translate(36.971 41.405)" fill="none" stroke="#3fe3fc" stroke-linecap="round" stroke-linejoin="round" stroke-width="2"/>
      <path id="Path_11368" data-name="Path 11368" d="M43.743,42.957V40.627a4.328,4.328,0,0,0-4.316-4.315H26.68a4.327,4.327,0,0,0-4.316,4.315v2.331" transform="translate(-1.193 -1.32)" fill="none" stroke="#3fe3fc" stroke-linecap="round" stroke-linejoin="round" stroke-width="2"/>
    </g>
  </g>
</svg>
