<svg xmlns="http://www.w3.org/2000/svg" width="66.23" height="66.183" viewBox="0 0 66.23 66.183">
  <g id="Group_6671" data-name="Group 6671" transform="translate(1.023 1)">
    <rect id="Rectangle_4452" data-name="Rectangle 4452" width="6.938" height="6.938" rx="1.417" transform="translate(12.669 26.578)" fill="none" stroke="#3fe3fc" stroke-linecap="round" stroke-linejoin="round" stroke-width="2"/>
    <rect id="Rectangle_4453" data-name="Rectangle 4453" width="6.938" height="6.938" rx="1.417" transform="translate(23.305 26.578)" fill="none" stroke="#3fe3fc" stroke-linecap="round" stroke-linejoin="round" stroke-width="2"/>
    <rect id="Rectangle_4454" data-name="Rectangle 4454" width="6.938" height="6.938" rx="1.417" transform="translate(33.941 26.578)" fill="none" stroke="#3fe3fc" stroke-linecap="round" stroke-linejoin="round" stroke-width="2"/>
    <rect id="Rectangle_4455" data-name="Rectangle 4455" width="6.938" height="6.938" rx="1.417" transform="translate(44.576 26.578)" fill="none" stroke="#3fe3fc" stroke-linecap="round" stroke-linejoin="round" stroke-width="2"/>
    <ellipse id="Ellipse_28" data-name="Ellipse 28" cx="6.47" cy="6.47" rx="6.47" ry="6.47" transform="translate(25.622 38.142)" fill="none" stroke="#3fe3fc" stroke-linecap="round" stroke-linejoin="round" stroke-width="2"/>
    <line id="Line_581" data-name="Line 581" y1="2.451" x2="1.78" transform="translate(32.092 42.161)" fill="none" stroke="#3fe3fc" stroke-linecap="round" stroke-linejoin="round" stroke-width="2"/>
    <ellipse id="Ellipse_29" data-name="Ellipse 29" cx="24.535" cy="24.535" rx="24.535" ry="24.535" transform="translate(7.556 7.556)" fill="none" stroke="#3fe3fc" stroke-linecap="round" stroke-linejoin="round" stroke-width="2"/>
    <line id="Line_582" data-name="Line 582" x2="16.574" transform="translate(23.805 17.4)" fill="none" stroke="#3fe3fc" stroke-linecap="round" stroke-linejoin="round" stroke-width="2"/>
    <line id="Line_583" data-name="Line 583" x2="9.636" transform="translate(27.274 14.023)" fill="none" stroke="#3fe3fc" stroke-linecap="round" stroke-linejoin="round" stroke-width="2"/>
    <path id="Path_11731" data-name="Path 11731" d="M4.728,47.638A32.1,32.1,0,0,1,56.284,10.9" transform="translate(-1.5 -1.5)" fill="none" stroke="#3fe3fc" stroke-linecap="round" stroke-linejoin="round" stroke-width="2"/>
    <path id="Path_11732" data-name="Path 11732" d="M83.288,18.715a2.574,2.574,0,1,1,.309-3.628A2.575,2.575,0,0,1,83.288,18.715Z" transform="translate(-25.001 -5.34)" fill="none" stroke="#3fe3fc" stroke-linecap="round" stroke-linejoin="round" stroke-width="2"/>
    <path id="Path_11733" data-name="Path 11733" d="M66.542,27.391A32.1,32.1,0,0,1,14.986,64.13" transform="translate(-5.587 -9.346)" fill="none" stroke="#3fe3fc" stroke-linecap="round" stroke-linejoin="round" stroke-width="2"/>
    <path id="Path_11734" data-name="Path 11734" d="M9.562,74.135a2.574,2.574,0,1,1-.309,3.628A2.575,2.575,0,0,1,9.562,74.135Z" transform="translate(-3.666 -23.327)" fill="none" stroke="#3fe3fc" stroke-linecap="round" stroke-linejoin="round" stroke-width="2"/>
  </g>
</svg>
