<svg xmlns="http://www.w3.org/2000/svg" width="68.466" height="66.184" viewBox="0 0 68.466 66.184">
  <g id="Group_6673" data-name="Group 6673" transform="translate(1.352 1)">
    <rect id="Rectangle_4449" data-name="Rectangle 4449" width="43.806" height="7.564" transform="matrix(0.468, -0.884, 0.884, 0.468, 0, 57.235)" fill="none" stroke="#3fe3fc" stroke-linecap="round" stroke-linejoin="round" stroke-width="2"/>
    <path id="Path_11728" data-name="Path 11728" d="M26.389,9.557,14.917,13.084l-1.54,2.906,30.2,15.992,5.511-10.406Z" transform="translate(-5.099 -3.941)" fill="none" stroke="#3fe3fc" stroke-linecap="round" stroke-linejoin="round" stroke-width="2"/>
    <path id="Path_11729" data-name="Path 11729" d="M42.705,7.76a33.871,33.871,0,0,0,7.11-6.26s9.6,12.129,25.775,12.129c0,0,6.064,38.914-25.775,52.054a39.2,39.2,0,0,1-20.086-17.9" transform="translate(-10.053 -1.5)" fill="none" stroke="#3fe3fc" stroke-linecap="round" stroke-linejoin="round" stroke-width="2"/>
    <path id="Path_11730" data-name="Path 11730" d="M79.564,25.062c.417,8.914-.592,31.3-19.883,41.065" transform="translate(-19.13 -8.64)" fill="none" stroke="#3fe3fc" stroke-linecap="round" stroke-linejoin="round" stroke-width="2"/>
  </g>
</svg>
