<svg xmlns="http://www.w3.org/2000/svg" width="58.578" height="66.183" viewBox="0 0 58.578 66.183">
  <g id="Group_6674" data-name="Group 6674" transform="translate(1.011 1)">
    <path id="Path_11735" data-name="Path 11735" d="M38.576,34.22l-8.042,4.643V48.15l8.042,4.644,8.042-4.644V38.863Z" transform="translate(-10.298 -11.415)" fill="none" stroke="#3fe3fc" stroke-linecap="round" stroke-linejoin="round" stroke-width="2"/>
    <path id="Path_11736" data-name="Path 11736" d="M44.121,5.122A3.622,3.622,0,1,1,40.5,1.5,3.622,3.622,0,0,1,44.121,5.122Z" transform="translate(-12.22 -1.5)" fill="none" stroke="#3fe3fc" stroke-linecap="round" stroke-linejoin="round" stroke-width="2"/>
    <path id="Path_11737" data-name="Path 11737" d="M44.121,86.817A3.622,3.622,0,1,1,40.5,83.195,3.622,3.622,0,0,1,44.121,86.817Z" transform="translate(-12.22 -26.256)" fill="none" stroke="#3fe3fc" stroke-linecap="round" stroke-linejoin="round" stroke-width="2"/>
    <line id="Line_584" data-name="Line 584" y2="11.425" transform="translate(28.278 11.381)" fill="none" stroke="#3fe3fc" stroke-linecap="round" stroke-linejoin="round" stroke-width="2"/>
    <path id="Path_11738" data-name="Path 11738" d="M37.025,21.347l3.518-3.518,3.518,3.518" transform="translate(-12.265 -6.448)" fill="none" stroke="#3fe3fc" stroke-linecap="round" stroke-linejoin="round" stroke-width="2"/>
    <line id="Line_585" data-name="Line 585" y1="11.425" transform="translate(28.278 41.378)" fill="none" stroke="#3fe3fc" stroke-linecap="round" stroke-linejoin="round" stroke-width="2"/>
    <path id="Path_11739" data-name="Path 11739" d="M44.062,72.212l-3.518,3.518-3.518-3.518" transform="translate(-12.265 -22.928)" fill="none" stroke="#3fe3fc" stroke-linecap="round" stroke-linejoin="round" stroke-width="2"/>
    <path id="Path_11740" data-name="Path 11740" d="M6.934,22.409a3.622,3.622,0,1,1-4.948,1.326A3.622,3.622,0,0,1,6.934,22.409Z" transform="translate(-1.5 -7.689)" fill="none" stroke="#3fe3fc" stroke-linecap="round" stroke-linejoin="round" stroke-width="2"/>
    <path id="Path_11741" data-name="Path 11741" d="M77.684,63.257a3.622,3.622,0,1,1-4.948,1.326A3.622,3.622,0,0,1,77.684,63.257Z" transform="translate(-22.939 -20.067)" fill="none" stroke="#3fe3fc" stroke-linecap="round" stroke-linejoin="round" stroke-width="2"/>
    <line id="Line_586" data-name="Line 586" x2="9.893" y2="5.712" transform="translate(10.342 21.736)" fill="none" stroke="#3fe3fc" stroke-linecap="round" stroke-linejoin="round" stroke-width="2"/>
    <path id="Path_11742" data-name="Path 11742" d="M17.626,36.933l-1.288-4.806,4.806-1.288" transform="translate(-5.996 -10.39)" fill="none" stroke="#3fe3fc" stroke-linecap="round" stroke-linejoin="round" stroke-width="2"/>
    <line id="Line_587" data-name="Line 587" x1="9.893" y1="5.712" transform="translate(36.321 36.735)" fill="none" stroke="#3fe3fc" stroke-linecap="round" stroke-linejoin="round" stroke-width="2"/>
    <path id="Path_11743" data-name="Path 11743" d="M64.43,55.507l1.288,4.806L60.912,61.6" transform="translate(-19.503 -17.865)" fill="none" stroke="#3fe3fc" stroke-linecap="round" stroke-linejoin="round" stroke-width="2"/>
    <path id="Path_11744" data-name="Path 11744" d="M3.311,63.257A3.622,3.622,0,1,1,1.986,68.2,3.622,3.622,0,0,1,3.311,63.257Z" transform="translate(-1.5 -20.067)" fill="none" stroke="#3fe3fc" stroke-linecap="round" stroke-linejoin="round" stroke-width="2"/>
    <path id="Path_11745" data-name="Path 11745" d="M74.062,22.409a3.622,3.622,0,1,1-1.326,4.948A3.622,3.622,0,0,1,74.062,22.409Z" transform="translate(-22.939 -7.689)" fill="none" stroke="#3fe3fc" stroke-linecap="round" stroke-linejoin="round" stroke-width="2"/>
    <line id="Line_588" data-name="Line 588" y1="5.712" x2="9.893" transform="translate(10.342 36.735)" fill="none" stroke="#3fe3fc" stroke-linecap="round" stroke-linejoin="round" stroke-width="2"/>
    <path id="Path_11746" data-name="Path 11746" d="M21.144,61.6l-4.806-1.288,1.288-4.806" transform="translate(-5.996 -17.865)" fill="none" stroke="#3fe3fc" stroke-linecap="round" stroke-linejoin="round" stroke-width="2"/>
    <line id="Line_589" data-name="Line 589" x1="9.893" y2="5.712" transform="translate(36.321 21.736)" fill="none" stroke="#3fe3fc" stroke-linecap="round" stroke-linejoin="round" stroke-width="2"/>
    <path id="Path_11747" data-name="Path 11747" d="M60.912,30.839l4.806,1.288L64.43,36.933" transform="translate(-19.503 -10.39)" fill="none" stroke="#3fe3fc" stroke-linecap="round" stroke-linejoin="round" stroke-width="2"/>
  </g>
</svg>
