<svg xmlns="http://www.w3.org/2000/svg" width="67.391" height="66.183" viewBox="0 0 67.391 66.183">
  <g id="Group_6675" data-name="Group 6675" transform="translate(1 1)">
    <path id="Path_11748" data-name="Path 11748" d="M19.969,18.114c.129-2.795.392-4.484.392-4.484C36.533,13.629,46.135,1.5,46.135,1.5s9.6,12.129,25.775,12.129c0,0,6.064,38.914-25.775,52.054a40.412,40.412,0,0,1-12.948-8.4" transform="translate(-7.096 -1.5)" fill="none" stroke="#3fe3fc" stroke-linecap="round" stroke-linejoin="round" stroke-width="2"/>
    <path id="Path_11749" data-name="Path 11749" d="M78.528,25.062c.417,8.914-.592,31.3-19.883,41.064" transform="translate(-18.816 -8.64)" fill="none" stroke="#3fe3fc" stroke-linecap="round" stroke-linejoin="round" stroke-width="2"/>
    <path id="Path_11750" data-name="Path 11750" d="M11.831,30.39H29.469V23.838L49.878,37.7,29.469,51.555V45H21.91V38.453L1.5,52.311,21.91,66.17V59.618H39.548" transform="translate(-1.5 -8.269)" fill="none" stroke="#3fe3fc" stroke-linecap="round" stroke-linejoin="round" stroke-width="2"/>
  </g>
</svg>
