<svg xmlns="http://www.w3.org/2000/svg" width="66.183" height="66.183" viewBox="0 0 66.183 66.183">
  <g id="Group_6676" data-name="Group 6676" transform="translate(1 1)">
    <path id="Path_11751" data-name="Path 11751" d="M2.465,41.436a32.067,32.067,0,1,1,27.089,24" transform="translate(-1.5 -1.5)" fill="none" stroke="#3fe3fc" stroke-linecap="round" stroke-linejoin="round" stroke-width="2"/>
    <path id="Path_11752" data-name="Path 11752" d="M27.538,25.388l13.89,13.89L60.312,20.392" transform="translate(-9.336 -7.185)" fill="none" stroke="#3fe3fc" stroke-linecap="round" stroke-linejoin="round" stroke-width="2"/>
    <line id="Line_590" data-name="Line 590" y2="5.188" transform="translate(32.092 6.484)" fill="none" stroke="#3fe3fc" stroke-linecap="round" stroke-linejoin="round" stroke-width="2"/>
    <line id="Line_591" data-name="Line 591" x1="5.188" transform="translate(52.511 32.091)" fill="none" stroke="#3fe3fc" stroke-linecap="round" stroke-linejoin="round" stroke-width="2"/>
    <line id="Line_592" data-name="Line 592" y1="5.188" transform="translate(32.092 52.511)" fill="none" stroke="#3fe3fc" stroke-linecap="round" stroke-linejoin="round" stroke-width="2"/>
    <path id="Path_11753" data-name="Path 11753" d="M23.68,84.828H8.041a1.984,1.984,0,0,1-1.984-1.984V65.215H25.67V82.838A1.99,1.99,0,0,1,23.68,84.828Z" transform="translate(-2.871 -20.674)" fill="none" stroke="#3fe3fc" stroke-linecap="round" stroke-linejoin="round" stroke-width="2"/>
    <path id="Path_11754" data-name="Path 11754" d="M23.944,54.183a6.776,6.776,0,0,0-13.553,0v5.673" transform="translate(-4.176 -15.315)" fill="none" stroke="#3fe3fc" stroke-linecap="round" stroke-linejoin="round" stroke-width="2"/>
    <path id="Path_11755" data-name="Path 11755" d="M21.933,73.527a3.246,3.246,0,1,0-4.761,2.854v4.956a1.284,1.284,0,0,0,1.28,1.28h.47a1.284,1.284,0,0,0,1.28-1.28V76.381A3.233,3.233,0,0,0,21.933,73.527Z" transform="translate(-5.696 -22.199)" fill="none" stroke="#3fe3fc" stroke-linecap="round" stroke-linejoin="round" stroke-width="2"/>
  </g>
</svg>
