<svg xmlns="http://www.w3.org/2000/svg" width="47.861" height="44.817" viewBox="0 0 47.861 44.817">
  <g id="Group_6862" data-name="Group 6862" transform="translate(1 1)">
    <line id="Line_606" data-name="Line 606" x2="37.118" transform="translate(4.372 11.244)" fill="none" stroke="#2cd5c4" stroke-linecap="round" stroke-linejoin="round" stroke-width="2"/>
    <g id="Group_6861" data-name="Group 6861" transform="translate(0 0)">
      <g id="Group_6864" data-name="Group 6864" transform="translate(0 0)">
        <line id="Line_607" data-name="Line 607" y2="6.935" transform="translate(10.554)" fill="none" stroke="#2cd5c4" stroke-linecap="round" stroke-linejoin="round" stroke-width="2"/>
        <line id="Line_608" data-name="Line 608" y2="6.935" transform="translate(35.308)" fill="none" stroke="#2cd5c4" stroke-linecap="round" stroke-linejoin="round" stroke-width="2"/>
        <path id="Path_11787" data-name="Path 11787" d="M8.379,4.345H3.607A2.865,2.865,0,0,0,.75,7.2V40.837a2.865,2.865,0,0,0,2.857,2.858H43.754a2.865,2.865,0,0,0,2.857-2.858V7.2a2.865,2.865,0,0,0-2.857-2.858H38.982" transform="translate(-0.75 -0.878)" fill="none" stroke="#2cd5c4" stroke-linecap="round" stroke-linejoin="round" stroke-width="2"/>
        <line id="Line_609" data-name="Line 609" x2="19.49" transform="translate(13.186 3.468)" fill="none" stroke="#2cd5c4" stroke-linecap="round" stroke-linejoin="round" stroke-width="2"/>
        <rect id="Rectangle_4519" data-name="Rectangle 4519" width="8.5" height="7.442" rx="1.417" transform="translate(5.89 17.583)" fill="none" stroke="#2cd5c4" stroke-linecap="round" stroke-linejoin="round" stroke-width="2"/>
        <rect id="Rectangle_4520" data-name="Rectangle 4520" width="8.5" height="7.442" rx="1.417" transform="translate(18.681 17.583)" fill="none" stroke="#2cd5c4" stroke-linecap="round" stroke-linejoin="round" stroke-width="2"/>
        <rect id="Rectangle_4521" data-name="Rectangle 4521" width="8.5" height="7.442" rx="1.417" transform="translate(31.472 17.583)" fill="none" stroke="#2cd5c4" stroke-linecap="round" stroke-linejoin="round" stroke-width="2"/>
        <rect id="Rectangle_4522" data-name="Rectangle 4522" width="8.5" height="7.442" rx="1.417" transform="translate(5.89 28.816)" fill="none" stroke="#2cd5c4" stroke-linecap="round" stroke-linejoin="round" stroke-width="2"/>
        <rect id="Rectangle_4523" data-name="Rectangle 4523" width="8.5" height="7.442" rx="1.417" transform="translate(18.681 28.816)" fill="none" stroke="#2cd5c4" stroke-linecap="round" stroke-linejoin="round" stroke-width="2"/>
        <rect id="Rectangle_4524" data-name="Rectangle 4524" width="8.5" height="7.442" rx="1.417" transform="translate(31.472 28.816)" fill="none" stroke="#2cd5c4" stroke-linecap="round" stroke-linejoin="round" stroke-width="2"/>
      </g>
    </g>
  </g>
</svg>
