<svg xmlns="http://www.w3.org/2000/svg" width="44.71" height="44.817" viewBox="0 0 44.71 44.817">
  <g id="Group_6859" data-name="Group 6859" transform="translate(1 1)">
    <g id="Group_6866" data-name="Group 6866" transform="translate(0 0)">
      <path id="Path_11777" data-name="Path 11777" d="M25.79,10.4A3.006,3.006,0,1,1,22.784,7.39,3.006,3.006,0,0,1,25.79,10.4Z" transform="translate(-1.428 -0.986)" fill="none" stroke="#2cd5c4" stroke-linecap="round" stroke-linejoin="round" stroke-width="2"/>
      <path id="Path_11778" data-name="Path 11778" d="M18.326,23.829V33.3s.111,4.762.869,11.093H.75" transform="translate(-0.75 -1.572)" fill="none" stroke="#2cd5c4" stroke-linecap="round" stroke-linejoin="round" stroke-width="2"/>
      <path id="Path_11779" data-name="Path 11779" d="M14.789,32.772V20.367a2.96,2.96,0,0,1,2.951-2.951h9.73a2.96,2.96,0,0,1,2.952,2.951V32.772" transform="translate(-1.25 -1.343)" fill="none" stroke="#2cd5c4" stroke-linecap="round" stroke-linejoin="round" stroke-width="2"/>
      <path id="Path_11780" data-name="Path 11780" d="M16.377,3.756A3.006,3.006,0,1,1,13.371.75,3.006,3.006,0,0,1,16.377,3.756Z" transform="translate(-1.093 -0.75)" fill="none" stroke="#2cd5c4" stroke-linecap="round" stroke-linejoin="round" stroke-width="2"/>
      <path id="Path_11781" data-name="Path 11781" d="M9.562,17.189v9.467s.095,4.046.7,9.636" transform="translate(-1.064 -1.335)" fill="none" stroke="#2cd5c4" stroke-linecap="round" stroke-linejoin="round" stroke-width="2"/>
      <path id="Path_11782" data-name="Path 11782" d="M5.376,26.132V13.727a2.96,2.96,0,0,1,2.951-2.951h7.96" transform="translate(-0.915 -1.107)" fill="none" stroke="#2cd5c4" stroke-linecap="round" stroke-linejoin="round" stroke-width="2"/>
      <path id="Path_11783" data-name="Path 11783" d="M26.781,23.829V33.3s-.111,4.762-.869,11.093H44.357" transform="translate(-1.647 -1.572)" fill="none" stroke="#2cd5c4" stroke-linecap="round" stroke-linejoin="round" stroke-width="2"/>
      <path id="Path_11784" data-name="Path 11784" d="M29.19,3.756A3.006,3.006,0,1,0,32.2.75,3.006,3.006,0,0,0,29.19,3.756Z" transform="translate(-1.763 -0.75)" fill="none" stroke="#2cd5c4" stroke-linecap="round" stroke-linejoin="round" stroke-width="2"/>
      <path id="Path_11785" data-name="Path 11785" d="M36.2,17.189v9.467s-.095,4.046-.7,9.636" transform="translate(-1.988 -1.335)" fill="none" stroke="#2cd5c4" stroke-linecap="round" stroke-linejoin="round" stroke-width="2"/>
      <path id="Path_11786" data-name="Path 11786" d="M40.009,26.132V13.727a2.96,2.96,0,0,0-2.951-2.951H29.1" transform="translate(-1.76 -1.107)" fill="none" stroke="#2cd5c4" stroke-linecap="round" stroke-linejoin="round" stroke-width="2"/>
    </g>
  </g>
</svg>
