<svg xmlns="http://www.w3.org/2000/svg" width="32.001" height="31.999" viewBox="0 0 32.001 31.999">
  <g id="Group_6973" data-name="Group 6973" transform="translate(-454.005 -5747.176)">
    <path id="Path_9010" data-name="Path 9010" d="M66.006.176a16,16,0,1,0,16,16,16,16,0,0,0-16-16m9.827,20.077a5.6,5.6,0,0,1-5.594,5.594H61.772a5.6,5.6,0,0,1-5.593-5.594V11.786a5.6,5.6,0,0,1,5.593-5.592h8.467a5.6,5.6,0,0,1,5.594,5.592Z" transform="translate(404 5747)" fill="#003150" fill-rule="evenodd"/>
    <path id="Path_9011" data-name="Path 9011" d="M70.239,7.878H61.772a3.914,3.914,0,0,0-3.908,3.909v8.467a3.914,3.914,0,0,0,3.908,3.909h8.467a3.914,3.914,0,0,0,3.908-3.909V11.787a3.913,3.913,0,0,0-3.908-3.909M66.006,21.052a5.031,5.031,0,1,1,5.032-5.032,5.037,5.037,0,0,1-5.032,5.032m5.246-9.142a1.21,1.21,0,1,1,1.211-1.21,1.208,1.208,0,0,1-1.211,1.21" transform="translate(404 5747)" fill="#003150" fill-rule="evenodd"/>
    <path id="Path_9012" data-name="Path 9012" d="M66.006,12.673a3.347,3.347,0,1,0,3.347,3.347,3.35,3.35,0,0,0-3.347-3.347" transform="translate(404 5747)" fill="#003150" fill-rule="evenodd"/>
  </g>
</svg>
