<svg xmlns="http://www.w3.org/2000/svg" width="32" height="32" viewBox="0 0 32 32">
  <path id="Path_9009" data-name="Path 9009" d="M16,.176a16,16,0,1,0,16,16,16,16,0,0,0-16-16M11.633,23.822H8.2V13.506h3.431ZM9.917,12.1H9.9a1.788,1.788,0,1,1,.044-3.566A1.789,1.789,0,1,1,9.917,12.1M24,23.822H20.57V18.3c0-1.386-.5-2.334-1.738-2.334a1.882,1.882,0,0,0-1.76,1.256,2.355,2.355,0,0,0-.113.836v5.762H13.53s.044-9.35,0-10.316h3.429v1.461a3.4,3.4,0,0,1,3.092-1.7c2.256,0,3.949,1.473,3.949,4.643Z" transform="translate(0 -0.176)" fill="#003150"/>
</svg>
