<svg xmlns="http://www.w3.org/2000/svg" width="202" height="29.988" viewBox="0 0 202 29.988">
  <g id="Group_6421" data-name="Group 6421" transform="translate(-89.982 -635.425)">
    <g id="Group_2887" data-name="Group 2887" transform="translate(89.982 635.425)">
      <path id="Path_8382" data-name="Path 8382" d="M89.982,649.832h6.8s2.87,14.154,3.259,16.495l4.077-16.495h5.948l4.23,16.495c.407-2.341,3.261-16.495,3.261-16.495h6.326l-5.523,23.111h-8.021L106.8,659.1c-.405,2.488-3.2,13.848-3.2,13.848H95.768Z" transform="translate(-89.982 -643.693)" fill="#0972b5"/>
      <path id="Path_8383" data-name="Path 8383" d="M188.3,657.309c-.137-2.022-1.146-3.341-3.654-3.341a12.7,12.7,0,0,0-6.116,2.087l-2.434-4.5a18.884,18.884,0,0,1,9.871-3.042c5.908,0,9.181,3.376,9.181,10.458v13.213h-6.8Z" transform="translate(-139.402 -642.939)" fill="#0972b5"/>
      <path id="Path_8384" data-name="Path 8384" d="M229.378,635.425h6.73v6.139h5.54v5.373h-5.54v9.253c0,2.619,1.19,3.671,2.993,3.671a6.855,6.855,0,0,0,2.2-.438l1.081,4.973a16.33,16.33,0,0,1-5.137.838c-5.711,0-7.98-3.607-7.98-8.961Z" transform="translate(-169.912 -635.425)" fill="#0972b5"/>
      <path id="Path_8385" data-name="Path 8385" d="M262.369,660.64c0-7.5,5.349-12.122,10.9-12.122,6.58,0,9.843,4.785,9.843,11.092a15.425,15.425,0,0,1-.285,3.025H269c.614,3.353,2.911,4.891,5.994,4.891a9.646,9.646,0,0,0,5-1.511l2.264,4.128a15.043,15.043,0,0,1-8.2,2.6c-6.588,0-11.69-4.456-11.69-12.107m14.895-2.533c0-2.541-1.107-4.37-3.841-4.37-2.164,0-4.032,1.451-4.5,4.37Z" transform="translate(-188.913 -642.939)" fill="#0972b5"/>
      <path id="Path_8386" data-name="Path 8386" d="M333.849,656.154a9.387,9.387,0,0,0-2.493-.373c-1.743,0-3.858.586-5.091,3.737v13.394h-6.848V649.8h5.05l1.029,4.039h.17a7.168,7.168,0,0,1,6.566-4.062Z" transform="translate(-221.653 -643.661)" fill="#0972b5"/>
      <rect id="Rectangle_2987" data-name="Rectangle 2987" width="6.848" height="23.111" transform="translate(150.896 6.138)" fill="#58c1da"/>
      <path id="Path_8387" data-name="Path 8387" d="M466.751,669.515l3.081-4.266a10.013,10.013,0,0,0,5.961,2.428c2.038,0,2.92-.777,2.92-1.988,0-1.523-2.289-2.213-4.668-3.145-2.834-1.1-6.116-2.976-6.116-6.8,0-4.3,3.5-7.235,8.829-7.235a13.146,13.146,0,0,1,8.146,2.927l-3.065,4.113a8.6,8.6,0,0,0-4.866-1.972c-1.77,0-2.641.692-2.641,1.845,0,1.474,2.164,2.037,4.56,2.91,2.926,1.081,6.224,2.729,6.224,6.954,0,4.182-3.3,7.454-9.494,7.454a14.992,14.992,0,0,1-8.872-3.228" transform="translate(-306.206 -642.936)" fill="#58c1da"/>
      <path id="Path_8388" data-name="Path 8388" d="M515.358,660.64c0-7.5,5.349-12.122,10.9-12.122,6.583,0,9.843,4.785,9.843,11.092a15.464,15.464,0,0,1-.285,3.025H521.991c.615,3.355,2.91,4.893,5.994,4.893a9.65,9.65,0,0,0,5-1.511l2.262,4.128a15.035,15.035,0,0,1-8.2,2.6c-6.588,0-11.69-4.456-11.69-12.107m14.9-2.533c0-2.54-1.107-4.37-3.842-4.37-2.163,0-4.031,1.451-4.5,4.37Z" transform="translate(-334.102 -642.939)" fill="#58c1da"/>
      <path id="Path_8389" data-name="Path 8389" d="M357.549,649.832h6.8s2.871,14.154,3.26,16.495l4.076-16.495h5.948l4.23,16.495c.407-2.341,3.261-16.495,3.261-16.495h6.326l-5.524,23.111H377.91L374.371,659.1c-.406,2.488-3.2,13.848-3.2,13.848h-7.836Z" transform="translate(-243.536 -643.693)" fill="#58c1da"/>
      <path id="Path_8390" data-name="Path 8390" d="M170.96,675.547a6.471,6.471,0,1,0,11.191,6.117l0,0c1-2.234.4-10.3.4-10.3s-7.992,1.226-9.942,2.7l0,0a6.453,6.453,0,0,0-1.649,1.469" transform="translate(-135.65 -656.054)" fill="#58c1da"/>
    </g>
  </g>
</svg>
