<svg xmlns="http://www.w3.org/2000/svg" width="177" height="87.01" viewBox="0 0 177 87.01">
  <g id="Group_6420" data-name="Group 6420" transform="translate(-109.37 -250.946)">
    <path id="Path_11389" data-name="Path 11389" d="M125.435,297.625l-1.462,4.227h2.881Zm2.473,7.368-.642-1.926h-3.72l-.655,1.926h-1.523l3.455-9.533h1.151l3.455,9.533Z" transform="translate(4.89 18.14)" fill="#01a0c6"/>
    <g id="Group_6417" data-name="Group 6417" transform="translate(136.718 313.52)">
      <path id="Path_11390" data-name="Path 11390" d="M132.295,296.758h-2.066v3.168h2.066a1.719,1.719,0,0,0,1.212-.421,1.708,1.708,0,0,0,0-2.327,1.712,1.712,0,0,0-1.212-.421m.08,4.479h-2.146v3.757H128.8V295.46h3.575a3,3,0,0,1,2.192.809,3.012,3.012,0,0,1-.007,4.152,2.991,2.991,0,0,1-2.184.815" transform="translate(-128.8 -295.38)" fill="#01a0c6"/>
      <path id="Path_11391" data-name="Path 11391" d="M138.776,296.758h-2.065v3.168h2.065a1.719,1.719,0,0,0,1.212-.421,1.708,1.708,0,0,0,0-2.327,1.712,1.712,0,0,0-1.212-.421m.08,4.479h-2.145v3.757h-1.43V295.46h3.575a3,3,0,0,1,2.192.809,3.012,3.012,0,0,1-.007,4.152,3,3,0,0,1-2.184.815" transform="translate(-126.159 -295.38)" fill="#01a0c6"/>
      <path id="Path_11392" data-name="Path 11392" d="M145.5,296.756h-2.118v3H145.5a1.67,1.67,0,0,0,1.158-.4,1.394,1.394,0,0,0,.443-1.1,1.422,1.422,0,0,0-.436-1.1,1.651,1.651,0,0,0-1.165-.4m1.654,8.238-1.98-4.028-1.792,0v4.024H141.95V295.46H145.6a2.941,2.941,0,0,1,2.125.769,2.665,2.665,0,0,1,.8,2.013,2.561,2.561,0,0,1-.524,1.638,2.521,2.521,0,0,1-1.355.888l2.17,4.225Z" transform="translate(-123.441 -295.38)" fill="#01a0c6"/>
      <path id="Path_11393" data-name="Path 11393" d="M153.413,297.289a1.726,1.726,0,0,0-.616-.435,2.063,2.063,0,0,0-1.575.006,1.9,1.9,0,0,0-.67.483,1.8,1.8,0,0,0-.4.89,12.622,12.622,0,0,0-.106,2.011,13.046,13.046,0,0,0,.1,2.025,1.777,1.777,0,0,0,.4.87,1.88,1.88,0,0,0,.67.494,2.046,2.046,0,0,0,1.575-.006,1.917,1.917,0,0,0,.669-.481,1.784,1.784,0,0,0,.4-.89,12.82,12.82,0,0,0,.106-2.013,13.288,13.288,0,0,0-.1-2.025,1.913,1.913,0,0,0-.456-.929m1.085,6.779a3.368,3.368,0,0,1-2.491,1.016,3.073,3.073,0,0,1-2.289-.829,3.181,3.181,0,0,1-.96-1.578,21.259,21.259,0,0,1,0-4.86,3.18,3.18,0,0,1,.96-1.585,3.078,3.078,0,0,1,2.289-.829,3.579,3.579,0,0,1,1.372.253,3.649,3.649,0,0,1,1.178.823,2.486,2.486,0,0,1,.7,1.33,15.08,15.08,0,0,1,.138,2.434,16.382,16.382,0,0,1-.125,2.446,2.607,2.607,0,0,1-.774,1.378" transform="translate(-120.723 -295.403)" fill="#01a0c6"/>
    </g>
    <path id="Path_11394" data-name="Path 11394" d="M159.076,304.993h-1.113l-3.1-9.533h1.479l2.172,6.943,2.177-6.943H162.2Z" transform="translate(18.54 18.14)" fill="#01a0c6"/>
    <path id="Path_11395" data-name="Path 11395" d="M161.751,304.993V295.46h6.023v1.3h-4.593v2.781H167.1v1.284h-3.919V303.7h4.593v1.3Z" transform="translate(21.346 18.14)" fill="#01a0c6"/>
    <g id="Group_6418" data-name="Group 6418" transform="translate(192.139 313.52)">
      <path id="Path_11396" data-name="Path 11396" d="M172.942,297.4a2.059,2.059,0,0,0-1.6-.642H169.6V303.7h1.735a1.9,1.9,0,0,0,1.476-.51,2.124,2.124,0,0,0,.545-1.151,15.536,15.536,0,0,0,.084-1.876,13.85,13.85,0,0,0-.084-1.788,1.849,1.849,0,0,0-.418-.973m.978,6.7a2.83,2.83,0,0,1-1.064.67,4.04,4.04,0,0,1-1.372.227h-3.309V295.46h3.309a3.147,3.147,0,0,1,2.332.79,3.056,3.056,0,0,1,.919,1.607,14.728,14.728,0,0,1,.139,2.3v.522a9.916,9.916,0,0,1-.166,2,2.808,2.808,0,0,1-.788,1.412" transform="translate(-168.175 -295.38)" fill="#01a0c6"/>
      <path id="Path_11397" data-name="Path 11397" d="M181.7,296.758h-2.063v3.168H181.7a1.725,1.725,0,0,0,1.213-.421,1.712,1.712,0,0,0,0-2.327,1.718,1.718,0,0,0-1.213-.421m.08,4.479h-2.144v3.757H178.2V295.46h3.574a3,3,0,0,1,2.191.809,3.01,3.01,0,0,1-.006,4.152,3,3,0,0,1-2.186.815" transform="translate(-164.089 -295.38)" fill="#01a0c6"/>
      <path id="Path_11398" data-name="Path 11398" d="M188.418,296.756H186.3v3h2.118a1.673,1.673,0,0,0,1.16-.4,1.4,1.4,0,0,0,.443-1.1,1.423,1.423,0,0,0-.438-1.1,1.649,1.649,0,0,0-1.165-.4m1.652,8.238-1.979-4.028-1.792,0v4.024h-1.429V295.46h3.654a2.94,2.94,0,0,1,2.124.769,2.661,2.661,0,0,1,.8,2.013,2.561,2.561,0,0,1-.524,1.638,2.53,2.53,0,0,1-1.357.888l2.17,4.225Z" transform="translate(-161.371 -295.38)" fill="#01a0c6"/>
      <path id="Path_11399" data-name="Path 11399" d="M196.333,297.289a1.709,1.709,0,0,0-.615-.435,2,2,0,0,0-.787-.153,2.025,2.025,0,0,0-.79.159,1.93,1.93,0,0,0-.669.483,1.786,1.786,0,0,0-.4.89,12.8,12.8,0,0,0-.106,2.011,13.289,13.289,0,0,0,.1,2.025,1.766,1.766,0,0,0,.4.87,1.888,1.888,0,0,0,.669.494,2.05,2.05,0,0,0,1.576-.006,1.918,1.918,0,0,0,.669-.481,1.809,1.809,0,0,0,.4-.89,12.6,12.6,0,0,0,.107-2.013,13.235,13.235,0,0,0-.1-2.025,1.9,1.9,0,0,0-.457-.929m1.085,6.779a3.363,3.363,0,0,1-2.487,1.016,3.072,3.072,0,0,1-2.29-.829,3.164,3.164,0,0,1-.961-1.578,21.255,21.255,0,0,1,0-4.86,3.163,3.163,0,0,1,.961-1.585,3.077,3.077,0,0,1,2.29-.829,3.557,3.557,0,0,1,1.368.253,3.64,3.64,0,0,1,1.18.823,2.484,2.484,0,0,1,.7,1.33,14.838,14.838,0,0,1,.141,2.434,16.331,16.331,0,0,1-.127,2.446,2.6,2.6,0,0,1-.776,1.378" transform="translate(-158.653 -295.403)" fill="#01a0c6"/>
      <path id="Path_11400" data-name="Path 11400" d="M203.38,297.4a2.058,2.058,0,0,0-1.6-.642h-1.734V303.7h1.734a1.9,1.9,0,0,0,1.476-.51,2.119,2.119,0,0,0,.542-1.151,15.193,15.193,0,0,0,.086-1.876,13.545,13.545,0,0,0-.086-1.788,1.826,1.826,0,0,0-.417-.973m.98,6.7a2.841,2.841,0,0,1-1.067.67,4.024,4.024,0,0,1-1.37.227h-3.309V295.46h3.309a3.14,3.14,0,0,1,2.329.79,3.05,3.05,0,0,1,.921,1.607,14.556,14.556,0,0,1,.139,2.3v.522a10.032,10.032,0,0,1-.165,2,2.829,2.829,0,0,1-.788,1.412" transform="translate(-155.77 -295.38)" fill="#01a0c6"/>
      <path id="Path_11401" data-name="Path 11401" d="M208.9,305.061a3.359,3.359,0,0,1-2.417-.916,3.128,3.128,0,0,1-.959-2.373V295.46h1.429V301.7a2.1,2.1,0,0,0,.522,1.5,1.864,1.864,0,0,0,1.424.556,1.888,1.888,0,0,0,1.423-.556,2.074,2.074,0,0,0,.536-1.5V295.46h1.43v6.311a3.135,3.135,0,0,1-.96,2.373,3.378,3.378,0,0,1-2.429.916" transform="translate(-152.952 -295.38)" fill="#01a0c6"/>
      <path id="Path_11402" data-name="Path 11402" d="M215.876,305.084a3.078,3.078,0,0,1-2.29-.829,3.192,3.192,0,0,1-.96-1.578,21.492,21.492,0,0,1,0-4.862,3.193,3.193,0,0,1,.96-1.583,3.078,3.078,0,0,1,2.29-.829,3.3,3.3,0,0,1,2.218.763,3.557,3.557,0,0,1,1.147,2.165h-1.458a2.214,2.214,0,0,0-.654-1.2,1.805,1.805,0,0,0-1.253-.435,1.679,1.679,0,0,0-1.3.476,2.158,2.158,0,0,0-.549,1.077,12.253,12.253,0,0,0-.113,1.992,12.605,12.605,0,0,0,.107,2.02,2.1,2.1,0,0,0,.549,1.042,1.686,1.686,0,0,0,1.3.483,1.815,1.815,0,0,0,1.26-.442,2.234,2.234,0,0,0,.662-1.191h1.444a3.492,3.492,0,0,1-1.14,2.166,3.329,3.329,0,0,1-2.225.763" transform="translate(-150.116 -295.403)" fill="#01a0c6"/>
    </g>
    <path id="Path_11403" data-name="Path 11403" d="M222.824,296.757v8.237h-1.43v-8.237H218.8v-1.3h6.62v1.3Z" transform="translate(44.595 18.14)" fill="#01a0c6"/>
    <g id="Group_6419" data-name="Group 6419" transform="translate(109.37 250.946)">
      <path id="Path_11404" data-name="Path 11404" d="M276.109,337.956H119.628A10.27,10.27,0,0,1,109.37,327.7V261.205a10.271,10.271,0,0,1,10.258-10.259H276.109a10.272,10.272,0,0,1,10.261,10.259V327.7A10.27,10.27,0,0,1,276.109,337.956Zm-156.481-83.68a6.937,6.937,0,0,0-6.928,6.929V327.7a6.937,6.937,0,0,0,6.928,6.929H276.109a6.937,6.937,0,0,0,6.929-6.929V261.205a6.937,6.937,0,0,0-6.929-6.929Z" transform="translate(-109.37 -250.946)" fill="#031a31"/>
      <path id="Path_11405" data-name="Path 11405" d="M179.7,264.481l-3.765.006a.65.65,0,0,0-.631.5l-5.928,24.426L162.7,264.96a.651.651,0,0,0-.626-.479H158.9a.652.652,0,0,0-.628.479L151.6,289.41l-5.927-24.426a.652.652,0,0,0-.631-.5l-3.765-.006h0a.65.65,0,0,0-.629.811l8.508,33.339a.652.652,0,0,0,.629.488h0l3.315-.015a.648.648,0,0,0,.624-.476l6.767-24.458,6.769,24.458a.647.647,0,0,0,.622.476l3.315.015h0a.649.649,0,0,0,.629-.488l8.51-33.339a.656.656,0,0,0-.117-.56.621.621,0,0,0-.514-.251" transform="translate(-96.634 -245.43)" fill="#031a31"/>
      <path id="Path_11406" data-name="Path 11406" d="M196.2,287.158l5.315-14.925,5.253,14.925Zm7.378-22.25a.65.65,0,0,0-.609-.427h-2.992a.648.648,0,0,0-.609.427l-12.251,33.337a.651.651,0,0,0,.609.874h3.786a.651.651,0,0,0,.612-.431l2.579-7.145h13.55l2.477,7.153a.648.648,0,0,0,.614.436h0l3.83-.014a.652.652,0,0,0,.607-.874Z" transform="translate(-77.703 -245.43)" fill="#031a31"/>
      <path id="Path_11407" data-name="Path 11407" d="M229.467,282.978a13.207,13.207,0,0,0-3.479-2.308,17.3,17.3,0,0,0-3.788-.9l-3.631-.559a11.978,11.978,0,0,1-2.4-.687,7.9,7.9,0,0,1-2.159-1.341,3.87,3.87,0,0,1-.9-2.988,5.1,5.1,0,0,1,1.631-4.03,6.87,6.87,0,0,1,4.733-1.493,11.391,11.391,0,0,1,4.134.678,10.394,10.394,0,0,1,3.191,2,.65.65,0,0,0,.9-.021l2.29-2.291a.647.647,0,0,0,.19-.477.655.655,0,0,0-.215-.467,14.921,14.921,0,0,0-4.673-2.929,16.4,16.4,0,0,0-5.674-.881,11.925,11.925,0,0,0-8.217,2.736,9.372,9.372,0,0,0-3.092,7.311,8.257,8.257,0,0,0,2.557,6.52,13.086,13.086,0,0,0,6.642,2.866l3.879.608a15.249,15.249,0,0,1,2.57.577,6.308,6.308,0,0,1,1.872,1.232c.629.556.949,1.666.949,3.3a4.768,4.768,0,0,1-1.854,4.023,8.561,8.561,0,0,1-5.353,1.5,13.035,13.035,0,0,1-4.742-.774,11.6,11.6,0,0,1-3.869-2.683.647.647,0,0,0-.459-.191.654.654,0,0,0-.46.19l-2.431,2.432a.651.651,0,0,0,0,.919,15.2,15.2,0,0,0,5.23,3.56,18.813,18.813,0,0,0,6.638,1.025,13.522,13.522,0,0,0,8.8-2.7,9.1,9.1,0,0,0,3.347-7.4c0-2.991-.729-5.13-2.168-6.362" transform="translate(-69.41 -245.511)" fill="#031a31"/>
      <path id="Path_11408" data-name="Path 11408" d="M174.469,268.96h7.86a6.93,6.93,0,0,1,4.715,1.522,5.525,5.525,0,0,1,1.7,4.421,5.625,5.625,0,0,1-1.675,4.472,6.914,6.914,0,0,1-4.736,1.519h-7.86Zm12.421,15.749a10.716,10.716,0,0,0,3.667-17.411,11.159,11.159,0,0,0-7.9-2.816h-12.39a.65.65,0,0,0-.65.649v33.339a.651.651,0,0,0,.65.65h3.553a.651.651,0,0,0,.65-.65v-13.1H182l6.9,13.277a1.057,1.057,0,0,0,.937.57h0l2.9-.006a1.056,1.056,0,0,0,.933-1.545Z" transform="translate(-84.818 -245.43)" fill="#031a31"/>
      <path id="Path_11409" data-name="Path 11409" d="M131.87,263.58c-.049.068-.106.145-.169.229a18.733,18.733,0,0,0-3.243,10.561,18.327,18.327,0,0,0,4.125,11.754,8.221,8.221,0,0,1,1.907,4.822,7.055,7.055,0,0,1-11.007,5.848,13.479,13.479,0,0,0,21.863-10.549c0-3.9-1.961-7.332-4.4-10.583-3.754-4.992-8.021-10.642-9.074-12.082" transform="translate(-103.618 -245.797)" fill="#01a0c6"/>
      <path id="Path_11410" data-name="Path 11410" d="M135.213,284.988a9.5,9.5,0,0,1-1.869.187,9.244,9.244,0,0,1-9.246-9.243,10.011,10.011,0,0,1,1.538-5.06c-.457.609-.916,1.219-1.367,1.817-2.443,3.251-4.4,6.682-4.4,10.583a13.414,13.414,0,0,0,.856,4.725c8.121,3.675,14.49-3.009,14.49-3.009" transform="translate(-105.092 -242.826)" fill="#031a31"/>
      <path id="Path_11411" data-name="Path 11411" d="M134.965,280.9s-6.369,6.684-14.49,3.009a13.506,13.506,0,0,0,4.235,5.824,7.055,7.055,0,0,0,11.007-5.847,6.946,6.946,0,0,0-.752-2.987" transform="translate(-104.844 -238.739)" fill="#69b921"/>
    </g>
  </g>
</svg>
