<svg xmlns="http://www.w3.org/2000/svg" width="303" height="49.306" viewBox="0 0 303 49.306">
  <g id="Group_6920" data-name="Group 6920" transform="translate(-411.457 -529.173)">
    <g id="Group_6917" data-name="Group 6917" transform="translate(411.457 529.173)">
      <path id="Path_11827" data-name="Path 11827" d="M428.178,547.378h12.234v.7a16.173,16.173,0,0,1-2.816,9.286,13.17,13.17,0,0,1-10.914,5.28,15.182,15.182,0,1,1,.088-30.364,14.614,14.614,0,0,1,8.977,2.9,17.944,17.944,0,0,1,3.389,3.477l-2.42,2.2a15.534,15.534,0,0,0-2.772-3.037,10.777,10.777,0,0,0-7.129-2.464,12.1,12.1,0,0,0-.088,24.2,10.216,10.216,0,0,0,8.978-4.929,9.289,9.289,0,0,0,1.188-4.181h-8.713Z" transform="translate(-411.457 -530.039)" fill="#009878"/>
      <path id="Path_11828" data-name="Path 11828" d="M456.352,548.156h3.169v1.98a5.074,5.074,0,0,1,4.137-2.42,6.7,6.7,0,0,1,2.816.749l-1.5,2.86a3.262,3.262,0,0,0-1.849-.616,3.067,3.067,0,0,0-2.552,1.144c-.528.7-1.056,1.936-1.056,4.929v9.637h-3.169Z" transform="translate(-423.963 -534.338)" fill="#009878"/>
      <path id="Path_11829" data-name="Path 11829" d="M469.369,557.354a9.682,9.682,0,1,1,9.681,9.593A9.377,9.377,0,0,1,469.369,557.354Zm3.257,0c0,4.488,3.169,6.776,6.424,6.776,3.3,0,6.425-2.332,6.425-6.776,0-4.489-3.08-6.821-6.425-6.821S472.626,552.909,472.626,557.354Z" transform="translate(-427.589 -534.338)" fill="#009878"/>
      <path id="Path_11830" data-name="Path 11830" d="M503.177,558.975a6.215,6.215,0,0,0,.88,3.917,4.368,4.368,0,0,0,6.425,0,6.219,6.219,0,0,0,.879-3.917V548.326h3.169v11c0,2.244-.22,3.917-1.673,5.5a7.968,7.968,0,0,1-11.177,0c-1.452-1.583-1.672-3.257-1.672-5.5v-11h3.168Z" transform="translate(-436.125 -534.508)" fill="#009878"/>
      <path id="Path_11831" data-name="Path 11831" d="M525.536,548.156H528.7v2.112a6.44,6.44,0,0,1,5.237-2.552,6.194,6.194,0,0,1,5.236,2.508c.924,1.364,1.056,2.86,1.056,4.885v11.309h-3.168V555.2a5.369,5.369,0,0,0-.837-3.344,3.582,3.582,0,0,0-2.992-1.32,3.993,3.993,0,0,0-3.213,1.408c-1.233,1.451-1.32,3.609-1.32,4.929v9.549h-3.168Z" transform="translate(-443.236 -534.338)" fill="#009878"/>
      <path id="Path_11832" data-name="Path 11832" d="M565.025,529.173h3.168v32.08h-3.168V558.7a7.708,7.708,0,0,1-6.249,3.08c-4.621,0-8.89-3.257-8.89-9.681,0-6.293,4.225-9.55,8.89-9.55a7.557,7.557,0,0,1,6.249,3.036ZM553.143,552.1c0,3.917,2.2,6.864,5.984,6.864,3.873,0,6.072-3.213,6.072-6.821,0-4.708-3.256-6.776-6.072-6.776C556,545.367,553.143,547.655,553.143,552.1Z" transform="translate(-450.019 -529.173)" fill="#009878"/>
      <path id="Path_11833" data-name="Path 11833" d="M583.908,561.253H580.74v-32.08h3.168v16.37a7.853,7.853,0,0,1,6.249-2.993c5.72,0,8.889,4.753,8.889,9.681,0,5.017-3.213,9.55-8.758,9.55a7.755,7.755,0,0,1-6.38-3.08Zm11.881-9.022c0-4.488-3.036-6.864-5.984-6.864s-6.073,2.42-6.073,6.821c0,3.74,2.376,6.776,6.117,6.776C593.545,558.965,595.789,555.885,595.789,552.231Z" transform="translate(-458.614 -529.173)" fill="#0b4395"/>
      <path id="Path_11834" data-name="Path 11834" d="M610.129,548.156H613.3v1.98a5.075,5.075,0,0,1,4.137-2.42,6.693,6.693,0,0,1,2.816.749l-1.5,2.86a3.257,3.257,0,0,0-1.848-.616,3.067,3.067,0,0,0-2.552,1.144c-.528.7-1.056,1.936-1.056,4.929v9.637h-3.168Z" transform="translate(-466.801 -534.338)" fill="#0b4395"/>
      <path id="Path_11835" data-name="Path 11835" d="M640.612,561.754a10.912,10.912,0,0,1-2.244,2.948,8.865,8.865,0,0,1-6.072,2.244c-4.4,0-9.021-2.772-9.021-9.55,0-5.456,3.344-9.681,8.845-9.681a8.173,8.173,0,0,1,6.909,3.345,12.267,12.267,0,0,1,1.716,6.865H626.53c.045,3.784,2.641,6.2,5.809,6.2a5.552,5.552,0,0,0,3.741-1.32,7.269,7.269,0,0,0,1.892-2.508Zm-3.125-6.47a5.465,5.465,0,0,0-5.369-4.752,5.55,5.55,0,0,0-5.369,4.752Z" transform="translate(-470.462 -534.338)" fill="#0b4395"/>
      <path id="Path_11836" data-name="Path 11836" d="M665.123,548.156h3.168v18.262h-3.168v-2.552a7.707,7.707,0,0,1-6.249,3.08c-4.62,0-8.889-3.257-8.889-9.681,0-6.293,4.225-9.55,8.889-9.55a7.556,7.556,0,0,1,6.249,3.036Zm-11.881,9.109c0,3.917,2.2,6.864,5.984,6.864,3.873,0,6.073-3.213,6.073-6.821,0-4.708-3.257-6.776-6.073-6.776C656.1,550.532,653.241,552.821,653.241,557.266Z" transform="translate(-477.903 -534.338)" fill="#0b4395"/>
      <path id="Path_11837" data-name="Path 11837" d="M684.006,529.173v20.595l6.689-6.777h4.137L687,550.823l9.242,10.43H692.1l-7.305-8.317-.792.792v7.525h-3.168v-32.08Z" transform="translate(-486.498 -529.173)" fill="#0b4395"/>
      <path id="Path_11838" data-name="Path 11838" d="M718.221,561.754a10.917,10.917,0,0,1-2.245,2.948,8.862,8.862,0,0,1-6.072,2.244c-4.4,0-9.022-2.772-9.022-9.55,0-5.456,3.345-9.681,8.845-9.681a8.173,8.173,0,0,1,6.909,3.345,12.261,12.261,0,0,1,1.716,6.865H704.139c.043,3.784,2.64,6.2,5.809,6.2a5.552,5.552,0,0,0,3.74-1.32,7.27,7.27,0,0,0,1.892-2.508Zm-3.125-6.47a5.466,5.466,0,0,0-5.369-4.752,5.551,5.551,0,0,0-5.369,4.752Z" transform="translate(-492.082 -534.338)" fill="#0b4395"/>
      <path id="Path_11839" data-name="Path 11839" d="M729.07,548.156h3.168v1.98a5.075,5.075,0,0,1,4.137-2.42,6.693,6.693,0,0,1,2.816.749l-1.5,2.86a3.264,3.264,0,0,0-1.849-.616,3.065,3.065,0,0,0-2.552,1.144c-.529.7-1.057,1.936-1.057,4.929v9.637H729.07Z" transform="translate(-499.934 -534.338)" fill="#0b4395"/>
    </g>
    <g id="Group_6918" data-name="Group 6918" transform="translate(708.016 529.782)">
      <path id="Path_11840" data-name="Path 11840" d="M828.021,530.936a3.225,3.225,0,0,1-2.274,5.549,3.155,3.155,0,0,1-3.221-3.239,3.235,3.235,0,0,1,5.494-2.31Zm-4.055.4a2.631,2.631,0,0,0-.789,1.9,2.78,2.78,0,0,0,.761,1.93,2.641,2.641,0,0,0,1.809.742,2.539,2.539,0,0,0,1.773-.733,2.606,2.606,0,0,0,.8-1.9,2.713,2.713,0,0,0-.8-1.949,2.446,2.446,0,0,0-1.773-.734A2.389,2.389,0,0,0,823.966,531.335Zm1.791.12a1.211,1.211,0,0,1,.9.3,1.073,1.073,0,0,1,.279.77.948.948,0,0,1-.242.668,1.02,1.02,0,0,1-.594.288l1.123,1.448H826.4l-1.03-1.327v1.327h-.706v-3.471Zm-.39,1.568h.278a.591.591,0,0,0,.427-.139.479.479,0,0,0,.129-.353.452.452,0,0,0-.129-.353.589.589,0,0,0-.4-.111h-.306Z" transform="translate(-822.527 -530.017)" fill="#0b4395"/>
    </g>
    <rect id="Rectangle_4537" data-name="Rectangle 4537" width="41.823" height="19.602" transform="translate(664.35 529.782)" fill="none" stroke="#0b4395" stroke-miterlimit="10" stroke-width="0.75"/>
    <path id="Path_11841" data-name="Path 11841" d="M749.982,537.105c.119-.009,3.661-4.86,6.517-4.86s3.81,4.673,3.81,4.673.565,2.2,1.786,2.2a5.218,5.218,0,0,0,2.857-1.25,4.44,4.44,0,0,1,2.232-.765c.744,0,1.428-.039,3.095,1.419a5.262,5.262,0,0,0,4.008,1.7,9.846,9.846,0,0,0,3.968-1.072,5.458,5.458,0,0,1,2.768-.773,5.061,5.061,0,0,1,3.482,1.607c1.28,1.16,1.726,1.652,3.006,1.652.8,0,2.143-.7,3.363-2.4a4.972,4.972,0,0,1,4.137-2.133c1.25,0,3.542.2,4.375,3.889a4.181,4.181,0,0,0-4.018-2.381c-3.095,0-4.018,5.952-7.648,5.952s-4.226-3.928-6.964-3.928-2.877,2.827-6.468,2.827c-3.293,0-4.067-3.333-7.073-3.333s-3.095,2.172-5.268,2.172-3.3-2.648-3.749-3.9-1.161-2.708-2.589-2.708-2.8,1.7-3.72,3.184Z" transform="translate(-94.302 -0.856)" fill="#0b4395"/>
    <path id="Path_11842" data-name="Path 11842" d="M746.558,549.931s3.065-6.012,7.381-6.012,4.434,3.72,6.369,3.72c2.44,0,2.648-2.752,5.8-2.752s3.78,3.5,6.9,3.5,3.3-2.857,6.667-2.053a5.249,5.249,0,0,0-2.62,1.488,5.448,5.448,0,0,1-4.256,2.589c-2.112,0-3.69-3.065-6.577-3.065s-2.8,3.453-6.041,3.453c-2.827,0-3.155-4.286-6.1-4.286-3.631,0-5.059,5.03-5.059,5.03Z" transform="translate(-93.348 -4.108)" fill="#009878"/>
    <g id="Group_6919" data-name="Group 6919" transform="translate(532.854 565.845)">
      <path id="Path_11843" data-name="Path 11843" d="M586.839,583.4a3.866,3.866,0,0,0-1.015-.612,2.722,2.722,0,0,0-.985-.2,1.6,1.6,0,0,0-.984.285.894.894,0,0,0-.381.747.739.739,0,0,0,.191.524,1.625,1.625,0,0,0,.5.356,4.164,4.164,0,0,0,.7.262c.258.074.516.154.769.239a4.8,4.8,0,0,1,2.23,1.356,3.353,3.353,0,0,1,.706,2.215,4.318,4.318,0,0,1-.309,1.666,3.467,3.467,0,0,1-.905,1.278,4.165,4.165,0,0,1-1.46.825,6.065,6.065,0,0,1-1.959.294,7.205,7.205,0,0,1-4.207-1.35l1.333-2.507a5.4,5.4,0,0,0,1.381.92,3.3,3.3,0,0,0,1.349.3,1.614,1.614,0,0,0,1.135-.348,1.083,1.083,0,0,0,.277-1.262,1,1,0,0,0-.317-.365,2.57,2.57,0,0,0-.579-.31q-.357-.143-.865-.317-.6-.19-1.182-.421a3.727,3.727,0,0,1-1.031-.611,2.847,2.847,0,0,1-.731-.96,3.391,3.391,0,0,1-.278-1.468,4.249,4.249,0,0,1,.294-1.611,3.589,3.589,0,0,1,.825-1.238,3.683,3.683,0,0,1,1.3-.8,4.931,4.931,0,0,1,1.721-.285,7.524,7.524,0,0,1,1.858.246,8.162,8.162,0,0,1,1.856.722Z" transform="translate(-579.729 -580.005)" fill="#0b4395"/>
      <path id="Path_11844" data-name="Path 11844" d="M605.632,586.689l-4.364-6.222h3.713l2.222,3.27,2.206-3.27h3.714l-4.38,6.222v5.745h-3.111Z" transform="translate(-585.729 -580.134)" fill="#0b4395"/>
      <path id="Path_11845" data-name="Path 11845" d="M633.414,583.4a3.854,3.854,0,0,0-1.015-.612,2.721,2.721,0,0,0-.984-.2,1.6,1.6,0,0,0-.985.285.894.894,0,0,0-.381.747.739.739,0,0,0,.191.524,1.634,1.634,0,0,0,.5.356,4.184,4.184,0,0,0,.7.262c.258.074.516.154.769.239a4.8,4.8,0,0,1,2.23,1.356,3.354,3.354,0,0,1,.707,2.215,4.319,4.319,0,0,1-.309,1.666,3.469,3.469,0,0,1-.905,1.278,4.169,4.169,0,0,1-1.459.825,6.07,6.07,0,0,1-1.96.294,7.2,7.2,0,0,1-4.206-1.35l1.332-2.507a5.41,5.41,0,0,0,1.381.92,3.3,3.3,0,0,0,1.35.3,1.612,1.612,0,0,0,1.135-.348,1.063,1.063,0,0,0,.372-.794,1.079,1.079,0,0,0-.095-.468,1,1,0,0,0-.318-.365,2.57,2.57,0,0,0-.579-.31q-.357-.143-.865-.317-.6-.19-1.182-.421a3.728,3.728,0,0,1-1.031-.611,2.849,2.849,0,0,1-.731-.96,3.392,3.392,0,0,1-.278-1.468,4.236,4.236,0,0,1,.294-1.611,3.576,3.576,0,0,1,.825-1.238,3.682,3.682,0,0,1,1.3-.8,4.935,4.935,0,0,1,1.722-.285,7.521,7.521,0,0,1,1.857.246,8.146,8.146,0,0,1,1.856.722Z" transform="translate(-592.703 -580.005)" fill="#0b4395"/>
      <path id="Path_11846" data-name="Path 11846" d="M654.079,583.1v9.332h-3.112V583.1h-2.555v-2.635h8.222V583.1Z" transform="translate(-598.862 -580.134)" fill="#0b4395"/>
      <path id="Path_11847" data-name="Path 11847" d="M677.134,583.1h-3.7v2h3.492v2.635h-3.492V589.8h3.7v2.635h-6.809V580.467h6.809Z" transform="translate(-604.966 -580.134)" fill="#0b4395"/>
      <path id="Path_11848" data-name="Path 11848" d="M690.719,592.434l2.031-11.967h3.08l2.4,6.38,2.381-6.38h3.078l2.032,11.967h-3.095l-1.032-6.888-2.825,6.888h-1.238l-2.682-6.888-1.031,6.888Z" transform="translate(-610.647 -580.134)" fill="#0b4395"/>
      <path id="Path_11849" data-name="Path 11849" d="M729.2,583.4a3.842,3.842,0,0,0-1.015-.612,2.721,2.721,0,0,0-.984-.2,1.6,1.6,0,0,0-.984.285.893.893,0,0,0-.382.747.739.739,0,0,0,.191.524,1.634,1.634,0,0,0,.5.356,4.188,4.188,0,0,0,.7.262c.258.074.516.154.769.239a4.794,4.794,0,0,1,2.23,1.356,3.349,3.349,0,0,1,.707,2.215,4.319,4.319,0,0,1-.309,1.666,3.469,3.469,0,0,1-.905,1.278,4.162,4.162,0,0,1-1.459.825,6.069,6.069,0,0,1-1.96.294,7.2,7.2,0,0,1-4.206-1.35l1.332-2.507a5.4,5.4,0,0,0,1.382.92,3.3,3.3,0,0,0,1.349.3,1.613,1.613,0,0,0,1.135-.348,1.085,1.085,0,0,0,.278-1.262,1,1,0,0,0-.318-.365,2.553,2.553,0,0,0-.579-.31q-.357-.143-.865-.317-.6-.19-1.182-.421a3.723,3.723,0,0,1-1.032-.611,2.848,2.848,0,0,1-.731-.96,3.392,3.392,0,0,1-.278-1.468,4.235,4.235,0,0,1,.294-1.611,3.575,3.575,0,0,1,.825-1.238,3.683,3.683,0,0,1,1.3-.8,4.935,4.935,0,0,1,1.722-.285,7.522,7.522,0,0,1,1.857.246,8.148,8.148,0,0,1,1.856.722Z" transform="translate(-619.386 -580.005)" fill="#0b4395"/>
    </g>
  </g>
</svg>
